<svg width="192" height="192" viewBox="0 0 192 192" fill="none" xmlns="http://www.w3.org/2000/svg">
<rect width="192" height="192" fill="black"/>
<path d="M119.222 136.074C115.284 136.074 111.871 135.166 108.982 133.351C106.092 131.51 103.932 128.889 102.5 125.489L95.2898 104.932L86.392 82.3807L84.2443 77.1648C83.4773 75.3494 82.7102 74.0327 81.9432 73.2145C81.2017 72.3707 80.2301 71.9489 79.0284 71.9489C77.8267 71.9489 76.1392 72.3068 73.9659 73.0227L69.3636 57.2216C71.2813 56.5568 73.0199 56.0838 74.5795 55.8026C76.1392 55.5213 77.7756 55.3807 79.4886 55.3807C84.8324 55.3807 89.4858 56.6974 93.4489 59.331C97.4375 61.9645 100.352 65.6591 102.193 70.4148L118.761 113.062C119.963 116.131 120.935 118.125 121.676 119.045C122.443 119.966 123.491 120.426 124.821 120.426C125.077 120.426 125.307 120.413 125.511 120.388C125.716 120.362 125.92 120.324 126.125 120.273L127.199 135C126.483 135.281 125.32 135.524 123.709 135.729C122.124 135.959 120.628 136.074 119.222 136.074ZM63.9943 135L87.6193 73.483L102.193 106.773H95.1364L85.4716 135H63.9943Z" fill="white"/>
</svg>
