<svg width="512" height="512" viewBox="0 0 512 512" fill="none" xmlns="http://www.w3.org/2000/svg">
<rect width="512" height="512" fill="black"/>
<path d="M326.195 377.232C314.346 377.232 304.074 374.5 295.38 369.037C286.685 363.498 280.184 355.611 275.875 345.378L254.178 283.517L227.402 215.655L220.939 199.959C218.631 194.496 216.322 190.533 214.014 188.071C211.783 185.532 208.859 184.263 205.243 184.263C201.627 184.263 196.549 185.34 190.009 187.494L176.159 139.945C181.93 137.944 187.162 136.521 191.855 135.674C196.549 134.828 201.473 134.405 206.628 134.405C222.709 134.405 236.712 138.367 248.638 146.292C260.641 154.217 269.412 165.335 274.952 179.646L324.81 307.984C328.426 317.217 331.35 323.219 333.581 325.989C335.889 328.759 339.044 330.143 343.045 330.143C343.814 330.143 344.507 330.105 345.122 330.028C345.738 329.951 346.353 329.836 346.969 329.682L350.2 374C348.046 374.846 344.545 375.577 339.698 376.193C334.927 376.885 330.426 377.232 326.195 377.232ZM160.001 374L231.095 188.879L274.952 289.057H253.716L224.632 374H160.001Z" fill="white"/>
</svg>
