<svg width="100" height="100" viewBox="0 0 100 100" fill="none" xmlns="http://www.w3.org/2000/svg">
<path d="M63.9091 73.6364C61.5758 73.6364 59.553 73.0985 57.8409 72.0227C56.1288 70.9318 54.8485 69.3788 54 67.3636L49.7273 55.1818L44.4545 41.8182L43.1818 38.7273C42.7273 37.6515 42.2727 36.8712 41.8182 36.3864C41.3788 35.8864 40.803 35.6364 40.0909 35.6364C39.3788 35.6364 38.3788 35.8485 37.0909 36.2727L34.3636 26.9091C35.5 26.5151 36.5303 26.2348 37.4545 26.0682C38.3788 25.9015 39.3485 25.8182 40.3636 25.8182C43.5303 25.8182 46.2879 26.5985 48.6364 28.1591C51 29.7197 52.7273 31.9091 53.8182 34.7273L63.6364 60C64.3485 61.8182 64.9242 63 65.3636 63.5455C65.8182 64.0909 66.4394 64.3636 67.2273 64.3636C67.3788 64.3636 67.5152 64.3561 67.6364 64.3409C67.7576 64.3258 67.8788 64.303 68 64.2727L68.6364 73C68.2121 73.1667 67.5227 73.3106 66.5682 73.4318C65.6288 73.5682 64.7424 73.6364 63.9091 73.6364ZM31.1818 73L45.1818 36.5455L53.8182 56.2727H49.6364L43.9091 73H31.1818Z" fill="white"/>
</svg>
