<svg width="392" height="102" viewBox="0 0 392 102" fill="none" xmlns="http://www.w3.org/2000/svg">
<path d="M25 40.5714H28.4286V44H25V40.5714ZM25 44H28.4286V47.4286H25V44ZM25 47.4286H28.4286V50.8571H25V47.4286ZM25 50.8571H28.4286V54.2857H25V50.8571ZM25 54.2857H28.4286V57.7143H25V54.2857ZM25 57.7143H28.4286V61.1429H25V57.7143ZM28.4286 57.7143H31.8571V61.1429H28.4286V57.7143ZM28.4286 61.1429H31.8571V64.5714H28.4286V61.1429ZM31.8571 61.1429H35.2857V64.5714H31.8571V61.1429ZM31.8571 64.5714H35.2857V68H31.8571V64.5714ZM35.2857 61.1429H38.7143V64.5714H35.2857V61.1429ZM38.7143 57.7143H42.1429V61.1429H38.7143V57.7143ZM42.1429 47.4286H45.5714V50.8571H42.1429V47.4286ZM38.7143 40.5714H42.1429V44H38.7143V40.5714ZM42.1429 40.5714H45.5714V44H42.1429V40.5714ZM42.1429 44H45.5714V47.4286H42.1429V44ZM42.1429 50.8571H45.5714V54.2857H42.1429V50.8571ZM42.1429 54.2857H45.5714V57.7143H42.1429V54.2857ZM38.7143 54.2857H42.1429V57.7143H38.7143V54.2857ZM38.7143 50.8571H42.1429V54.2857H38.7143V50.8571ZM38.7143 47.4286H42.1429V50.8571H38.7143V47.4286ZM38.7143 44H42.1429V47.4286H38.7143V44ZM42.1429 57.7143H45.5714V61.1429H42.1429V57.7143ZM49 61.1429H52.4286V64.5714H49V61.1429ZM49 64.5714H52.4286V68H49V64.5714ZM52.4286 61.1429H55.8571V64.5714H52.4286V61.1429ZM52.4286 57.7143H55.8571V61.1429H52.4286V57.7143ZM55.8571 57.7143H59.2857V61.1429H55.8571V57.7143ZM55.8571 54.2857H59.2857V57.7143H55.8571V54.2857ZM55.8571 50.8571H59.2857V54.2857H55.8571V50.8571ZM55.8571 47.4286H59.2857V50.8571H55.8571V47.4286ZM55.8571 44H59.2857V47.4286H55.8571V44ZM55.8571 40.5714H59.2857V44H55.8571V40.5714ZM28.4286 44H31.8571V47.4286H28.4286V44ZM28.4286 47.4286H31.8571V50.8571H28.4286V47.4286ZM28.4286 50.8571H31.8571V54.2857H28.4286V50.8571ZM28.4286 54.2857H31.8571V57.7143H28.4286V54.2857ZM28.4286 40.5714H31.8571V44H28.4286V40.5714ZM52.4286 40.5714H55.8571V44H52.4286V40.5714ZM52.4286 44H55.8571V47.4286H52.4286V44ZM52.4286 47.4286H55.8571V50.8571H52.4286V47.4286ZM52.4286 50.8571H55.8571V54.2857H52.4286V50.8571ZM52.4286 54.2857H55.8571V57.7143H52.4286V54.2857ZM35.2857 64.5714H38.7143V68H35.2857V64.5714ZM38.7143 61.1429H42.1429V64.5714H38.7143V61.1429ZM42.1429 61.1429H45.5714V64.5714H42.1429V61.1429ZM45.5714 61.1429H49V64.5714H45.5714V61.1429ZM45.5714 64.5714H49V68H45.5714V64.5714ZM31.8571 57.7143H35.2857V61.1429H31.8571V57.7143ZM49 57.7143H52.4286V61.1429H49V57.7143ZM92.2189 68H88.7904V64.5714H92.2189V68ZM92.2189 64.5714H88.7904V61.1429H92.2189V64.5714ZM88.7904 64.5714H85.3618V61.1429H88.7904V64.5714ZM85.3618 68H81.9332V64.5714H85.3618V68ZM81.9332 68H78.5046V64.5714H81.9332V68ZM78.5046 68H75.0761V64.5714H78.5046V68ZM78.5046 64.5714H75.0761V61.1429H78.5046V64.5714ZM81.9332 64.5714H78.5046V61.1429H81.9332V64.5714ZM75.0761 64.5714H71.6475V61.1429H75.0761V64.5714ZM75.0761 61.1429H71.6475V57.7143H75.0761V61.1429ZM75.0761 47.4286H71.6475V44H75.0761V47.4286ZM78.5046 47.4286H75.0761V44H78.5046V47.4286ZM78.5046 61.1429H75.0761V57.7143H78.5046V61.1429ZM81.9332 47.4286H78.5046V44H81.9332V47.4286ZM78.5046 44H75.0761V40.5714H78.5046V44ZM81.9332 44H78.5046V40.5714H81.9332V44ZM85.3618 44H81.9332V40.5714H85.3618V44ZM88.7904 44H85.3618V40.5714H88.7904V44ZM92.2189 44H88.7904V40.5714H92.2189V44ZM92.2189 47.4286H88.7904V44H92.2189V47.4286ZM88.7904 47.4286H85.3618V44H88.7904V47.4286ZM92.2189 50.8571H88.7904V47.4286H92.2189V50.8571ZM95.6475 47.4286H92.2189V44H95.6475V47.4286ZM95.6475 50.8571H92.2189V47.4286H95.6475V50.8571ZM95.6475 54.2857H92.2189V50.8571H95.6475V54.2857ZM95.6475 57.7143H92.2189V54.2857H95.6475V57.7143ZM95.6475 61.1429H92.2189V57.7143H95.6475V61.1429ZM95.6475 64.5714H92.2189V61.1429H95.6475V64.5714ZM92.2189 61.1429H88.7904V57.7143H92.2189V61.1429ZM92.2189 57.7143H88.7904V54.2857H92.2189V57.7143ZM92.2189 54.2857H88.7904V50.8571H92.2189V54.2857ZM85.3618 47.4286H81.9332V44H85.3618V47.4286ZM85.3618 64.5714H81.9332V61.1429H85.3618V64.5714ZM92.2189 64.5714H95.6475V68H92.2189V64.5714ZM85.3618 50.8571H88.7904V54.2857H85.3618V50.8571ZM81.9332 50.8571H85.3618V54.2857H81.9332V50.8571ZM78.5046 50.8571H81.9332V54.2857H78.5046V50.8571ZM75.0761 50.8571H78.5046V54.2857H75.0761V50.8571ZM71.6475 54.2857H75.0761V57.7143H71.6475V54.2857ZM75.0761 54.2857H78.5046V57.7143H75.0761V54.2857ZM85.3618 54.2857H88.7904V57.7143H85.3618V54.2857ZM81.9332 54.2857H85.3618V57.7143H81.9332V54.2857ZM78.5046 54.2857H81.9332V57.7143H78.5046V54.2857ZM108.045 40.5714H111.474V44H108.045V40.5714ZM111.474 40.5714H114.902V44H111.474V40.5714ZM111.474 44H114.902V47.4286H111.474V44ZM111.474 47.4286H114.902V50.8571H111.474V47.4286ZM111.474 50.8571H114.902V54.2857H111.474V50.8571ZM111.474 54.2857H114.902V57.7143H111.474V54.2857ZM108.045 54.2857H111.474V57.7143H108.045V54.2857ZM108.045 50.8571H111.474V54.2857H108.045V50.8571ZM108.045 47.4286H111.474V50.8571H108.045V47.4286ZM108.045 44H111.474V47.4286H108.045V44ZM111.474 57.7143H114.902V61.1429H111.474V57.7143ZM114.902 57.7143H118.331V61.1429H114.902V57.7143ZM114.902 61.1429H118.331V64.5714H114.902V61.1429ZM118.331 61.1429H121.759V64.5714H118.331V61.1429ZM118.331 64.5714H121.759V68H118.331V64.5714ZM121.759 61.1429H125.188V64.5714H121.759V61.1429ZM121.759 57.7143H125.188V61.1429H121.759V57.7143ZM125.188 57.7143H128.616V61.1429H125.188V57.7143ZM125.188 54.2857H128.616V57.7143H125.188V54.2857ZM125.188 50.8571H128.616V54.2857H125.188V50.8571ZM125.188 47.4286H128.616V50.8571H125.188V47.4286ZM125.188 44H128.616V47.4286H125.188V44ZM125.188 40.5714H128.616V44H125.188V40.5714ZM128.616 50.8571H132.045V54.2857H128.616V50.8571ZM128.616 54.2857H132.045V57.7143H128.616V54.2857ZM128.616 47.4286H132.045V50.8571H128.616V47.4286ZM128.616 44H132.045V47.4286H128.616V44ZM128.616 40.5714H132.045V44H128.616V40.5714ZM118.331 57.7143H121.759V61.1429H118.331V57.7143ZM114.902 54.2857H118.331V57.7143H114.902V54.2857ZM121.759 54.2857H125.188V57.7143H121.759V54.2857ZM151.3 40.5714H154.728V44H151.3V40.5714ZM147.871 40.5714H151.3V44H147.871V40.5714ZM147.871 44H151.3V47.4286H147.871V44ZM151.3 44H154.728V47.4286H151.3V44ZM154.728 40.5714H158.157V44H154.728V40.5714ZM158.157 40.5714H161.585V44H158.157V40.5714ZM161.585 40.5714H165.014V44H161.585V40.5714ZM161.585 44H165.014V47.4286H161.585V44ZM158.157 44H161.585V47.4286H158.157V44ZM165.014 44H168.442V47.4286H165.014V44ZM165.014 47.4286H168.442V50.8571H165.014V47.4286ZM165.014 61.1429H168.442V64.5714H165.014V61.1429ZM161.585 61.1429H165.014V64.5714H161.585V61.1429ZM161.585 47.4286H165.014V50.8571H161.585V47.4286ZM158.157 61.1429H161.585V64.5714H158.157V61.1429ZM161.585 64.5714H165.014V68H161.585V64.5714ZM158.157 64.5714H161.585V68H158.157V64.5714ZM154.728 64.5714H158.157V68H154.728V64.5714ZM151.3 64.5714H154.728V68H151.3V64.5714ZM147.871 64.5714H151.3V68H147.871V64.5714ZM147.871 61.1429H151.3V64.5714H147.871V61.1429ZM151.3 61.1429H154.728V64.5714H151.3V61.1429ZM147.871 57.7143H151.3V61.1429H147.871V57.7143ZM144.442 61.1429H147.871V64.5714H144.442V61.1429ZM144.442 57.7143H147.871V61.1429H144.442V57.7143ZM144.442 54.2857H147.871V57.7143H144.442V54.2857ZM144.442 50.8571H147.871V54.2857H144.442V50.8571ZM144.442 47.4286H147.871V50.8571H144.442V47.4286ZM144.442 44H147.871V47.4286H144.442V44ZM147.871 47.4286H151.3V50.8571H147.871V47.4286ZM147.871 50.8571H151.3V54.2857H147.871V50.8571ZM147.871 54.2857H151.3V57.7143H147.871V54.2857ZM154.728 61.1429H158.157V64.5714H154.728V61.1429ZM154.728 44H158.157V47.4286H154.728V44ZM161.585 50.8571H165.014V54.2857H161.585V50.8571ZM165.014 50.8571H168.442V54.2857H165.014V50.8571ZM151.3 54.2857H154.728V57.7143H151.3V54.2857ZM154.728 54.2857H158.157V57.7143H154.728V54.2857ZM158.157 54.2857H161.585V57.7143H158.157V54.2857ZM161.585 54.2857H165.014V57.7143H161.585V54.2857ZM165.014 54.2857H168.442V57.7143H165.014V54.2857ZM158.157 50.8571H161.585V54.2857H158.157V50.8571ZM154.728 50.8571H158.157V54.2857H154.728V50.8571ZM151.3 50.8571H154.728V54.2857H151.3V50.8571ZM180.84 33.7143H184.269V37.1429H180.84V33.7143ZM184.269 33.7143H187.697V37.1429H184.269V33.7143ZM184.269 37.1429H187.697V40.5714H184.269V37.1429ZM184.269 40.5714H187.697V44H184.269V40.5714ZM184.269 44H187.697V47.4286H184.269V44ZM184.269 47.4286H187.697V50.8571H184.269V47.4286ZM184.269 50.8571H187.697V54.2857H184.269V50.8571ZM180.84 50.8571H184.269V54.2857H180.84V50.8571ZM180.84 54.2857H184.269V57.7143H180.84V54.2857ZM180.84 57.7143H184.269V61.1429H180.84V57.7143ZM180.84 61.1429H184.269V64.5714H180.84V61.1429ZM180.84 64.5714H184.269V68H180.84V64.5714ZM184.269 64.5714H187.697V68H184.269V64.5714ZM184.269 61.1429H187.697V64.5714H184.269V61.1429ZM184.269 57.7143H187.697V61.1429H184.269V57.7143ZM184.269 54.2857H187.697V57.7143H184.269V54.2857ZM180.84 47.4286H184.269V50.8571H180.84V47.4286ZM180.84 44H184.269V47.4286H180.84V44ZM180.84 40.5714H184.269V44H180.84V40.5714ZM180.84 37.1429H184.269V40.5714H180.84V37.1429ZM206.97 40.5714H210.398V44H206.97V40.5714ZM203.541 40.5714H206.97V44H203.541V40.5714ZM203.541 44H206.97V47.4286H203.541V44ZM206.97 44H210.398V47.4286H206.97V44ZM210.398 40.5714H213.827V44H210.398V40.5714ZM213.827 40.5714H217.255V44H213.827V40.5714ZM217.255 40.5714H220.684V44H217.255V40.5714ZM217.255 44H220.684V47.4286H217.255V44ZM213.827 44H217.255V47.4286H213.827V44ZM220.684 44H224.113V47.4286H220.684V44ZM220.684 47.4286H224.113V50.8571H220.684V47.4286ZM220.684 61.1429H224.113V64.5714H220.684V61.1429ZM217.255 61.1429H220.684V64.5714H217.255V61.1429ZM217.255 47.4286H220.684V50.8571H217.255V47.4286ZM213.827 61.1429H217.255V64.5714H213.827V61.1429ZM217.255 64.5714H220.684V68H217.255V64.5714ZM213.827 64.5714H217.255V68H213.827V64.5714ZM210.398 64.5714H213.827V68H210.398V64.5714ZM206.97 64.5714H210.398V68H206.97V64.5714ZM203.541 64.5714H206.97V68H203.541V64.5714ZM203.541 61.1429H206.97V64.5714H203.541V61.1429ZM206.97 61.1429H210.398V64.5714H206.97V61.1429ZM203.541 57.7143H206.97V61.1429H203.541V57.7143ZM200.113 61.1429H203.541V64.5714H200.113V61.1429ZM200.113 57.7143H203.541V61.1429H200.113V57.7143ZM200.113 54.2857H203.541V57.7143H200.113V54.2857ZM200.113 50.8571H203.541V54.2857H200.113V50.8571ZM200.113 47.4286H203.541V50.8571H200.113V47.4286ZM200.113 44H203.541V47.4286H200.113V44ZM203.541 47.4286H206.97V50.8571H203.541V47.4286ZM203.541 50.8571H206.97V54.2857H203.541V50.8571ZM203.541 54.2857H206.97V57.7143H203.541V54.2857ZM210.398 61.1429H213.827V64.5714H210.398V61.1429ZM210.398 44H213.827V47.4286H210.398V44ZM217.255 50.8571H220.684V54.2857H217.255V50.8571ZM220.684 50.8571H224.113V54.2857H220.684V50.8571ZM206.97 54.2857H210.398V57.7143H206.97V54.2857ZM210.398 54.2857H213.827V57.7143H210.398V54.2857ZM213.827 54.2857H217.255V57.7143H213.827V54.2857ZM217.255 54.2857H220.684V57.7143H217.255V54.2857ZM220.684 54.2857H224.113V57.7143H220.684V54.2857ZM213.827 50.8571H217.255V54.2857H213.827V50.8571ZM210.398 50.8571H213.827V54.2857H210.398V50.8571ZM206.97 50.8571H210.398V54.2857H206.97V50.8571ZM236.51 44H239.939V47.4286H236.51V44ZM236.51 40.5714H239.939V44H236.51V40.5714ZM239.939 40.5714H243.367V44H239.939V40.5714ZM239.939 44H243.367V47.4286H239.939V44ZM239.939 47.4286H243.367V50.8571H239.939V47.4286ZM239.939 50.8571H243.367V54.2857H239.939V50.8571ZM239.939 54.2857H243.367V57.7143H239.939V54.2857ZM236.51 54.2857H239.939V57.7143H236.51V54.2857ZM236.51 50.8571H239.939V54.2857H236.51V50.8571ZM236.51 47.4286H239.939V50.8571H236.51V47.4286ZM236.51 57.7143H239.939V61.1429H236.51V57.7143ZM239.939 57.7143H243.367V61.1429H239.939V57.7143ZM239.939 61.1429H243.367V64.5714H239.939V61.1429ZM239.939 64.5714H243.367V68H239.939V64.5714ZM236.51 64.5714H239.939V68H236.51V64.5714ZM236.51 61.1429H239.939V64.5714H236.51V61.1429ZM253.653 64.5714H257.081V68H253.653V64.5714ZM257.081 64.5714H260.51V68H257.081V64.5714ZM257.081 61.1429H260.51V64.5714H257.081V61.1429ZM257.081 57.7143H260.51V61.1429H257.081V57.7143ZM257.081 54.2857H260.51V57.7143H257.081V54.2857ZM257.081 50.8571H260.51V54.2857H257.081V50.8571ZM257.081 47.4286H260.51V50.8571H257.081V47.4286ZM257.081 44H260.51V47.4286H257.081V44ZM253.653 50.8571H257.081V54.2857H253.653V50.8571ZM253.653 54.2857H257.081V57.7143H253.653V54.2857ZM253.653 57.7143H257.081V61.1429H253.653V57.7143ZM253.653 61.1429H257.081V64.5714H253.653V61.1429ZM253.653 47.4286H257.081V50.8571H253.653V47.4286ZM243.367 44H246.796V47.4286H243.367V44ZM246.796 44H250.224V47.4286H246.796V44ZM250.224 44H253.653V47.4286H250.224V44ZM250.224 40.5714H253.653V44H250.224V40.5714ZM253.653 40.5714H257.081V44H253.653V40.5714ZM253.653 44H257.081V47.4286H253.653V44ZM246.796 40.5714H250.224V44H246.796V40.5714ZM293.479 40.5714H296.908V44H293.479V40.5714ZM290.05 40.5714H293.479V44H290.05V40.5714ZM286.622 40.5714H290.05V44H286.622V40.5714ZM283.193 40.5714H286.622V44H283.193V40.5714ZM279.765 40.5714H283.193V44H279.765V40.5714ZM279.765 44H283.193V47.4286H279.765V44ZM283.193 44H286.622V47.4286H283.193V44ZM286.622 44H290.05V47.4286H286.622V44ZM290.05 44H293.479V47.4286H290.05V44ZM293.479 44H296.908V47.4286H293.479V44ZM276.336 40.5714H279.765V44H276.336V40.5714ZM276.336 44H279.765V47.4286H276.336V44ZM276.336 47.4286H279.765V50.8571H276.336V47.4286ZM272.908 47.4286H276.336V50.8571H272.908V47.4286ZM272.908 44H276.336V47.4286H272.908V44ZM272.908 50.8571H276.336V54.2857H272.908V50.8571ZM272.908 54.2857H276.336V57.7143H272.908V54.2857ZM276.336 57.7143H279.765V61.1429H276.336V57.7143ZM276.336 54.2857H279.765V57.7143H276.336V54.2857ZM276.336 50.8571H279.765V54.2857H276.336V50.8571ZM272.908 57.7143H276.336V61.1429H272.908V57.7143ZM276.336 61.1429H279.765V64.5714H276.336V61.1429ZM279.765 61.1429H283.193V64.5714H279.765V61.1429ZM283.193 61.1429H286.622V64.5714H283.193V61.1429ZM290.05 61.1429H293.479V64.5714H290.05V61.1429ZM293.479 61.1429H296.908V64.5714H293.479V61.1429ZM293.479 57.7143H296.908V61.1429H293.479V57.7143ZM290.05 57.7143H293.479V61.1429H290.05V57.7143ZM286.622 57.7143H290.05V61.1429H286.622V57.7143ZM283.193 57.7143H286.622V61.1429H283.193V57.7143ZM279.765 57.7143H283.193V61.1429H279.765V57.7143ZM290.05 54.2857H293.479V57.7143H290.05V54.2857ZM290.05 50.8571H293.479V54.2857H290.05V50.8571ZM290.05 47.4286H293.479V50.8571H290.05V47.4286ZM293.479 47.4286H296.908V50.8571H293.479V47.4286ZM293.479 50.8571H296.908V54.2857H293.479V50.8571ZM293.479 54.2857H296.908V57.7143H293.479V54.2857ZM290.05 64.5714H293.479V68H290.05V64.5714ZM290.05 68H293.479V71.4286H290.05V68ZM293.479 68H296.908V71.4286H293.479V68ZM293.479 64.5714H296.908V68H293.479V64.5714ZM272.908 68H276.336V71.4286H272.908V68ZM276.336 68H279.765V71.4286H276.336V68ZM276.336 71.4286H279.765V74.8571H276.336V71.4286ZM279.765 71.4286H283.193V74.8571H279.765V71.4286ZM279.765 68H283.193V71.4286H279.765V68ZM283.193 68H286.622V71.4286H283.193V68ZM286.622 68H290.05V71.4286H286.622V68ZM290.05 71.4286H293.479V74.8571H290.05V71.4286ZM286.622 71.4286H290.05V74.8571H286.622V71.4286ZM283.193 71.4286H286.622V74.8571H283.193V71.4286ZM323.019 61.1429H326.448V64.5714H323.019V61.1429ZM323.019 64.5714H326.448V68H323.019V64.5714ZM319.591 64.5714H323.019V68H319.591V64.5714ZM319.591 61.1429H323.019V64.5714H319.591V61.1429ZM316.162 64.5714H319.591V68H316.162V64.5714ZM316.162 61.1429H319.591V64.5714H316.162V61.1429ZM312.734 61.1429H316.162V64.5714H312.734V61.1429ZM312.734 57.7143H316.162V61.1429H312.734V57.7143ZM312.734 54.2857H316.162V57.7143H312.734V54.2857ZM312.734 50.8571H316.162V54.2857H312.734V50.8571ZM312.734 47.4286H316.162V50.8571H312.734V47.4286ZM312.734 44H316.162V47.4286H312.734V44ZM316.162 54.2857H319.591V57.7143H316.162V54.2857ZM316.162 57.7143H319.591V61.1429H316.162V57.7143ZM316.162 50.8571H319.591V54.2857H316.162V50.8571ZM316.162 47.4286H319.591V50.8571H316.162V47.4286ZM316.162 33.7143H319.591V37.1429H316.162V33.7143ZM316.162 37.1429H319.591V40.5714H316.162V37.1429ZM316.162 40.5714H319.591V44H316.162V40.5714ZM316.162 44H319.591V47.4286H316.162V44ZM312.734 40.5714H316.162V44H312.734V40.5714ZM309.305 44H312.734V47.4286H309.305V44ZM319.591 44H323.019V47.4286H319.591V44ZM323.019 44H326.448V47.4286H323.019V44ZM312.734 37.1429H316.162V40.5714H312.734V37.1429ZM309.305 47.4286H312.734V50.8571H309.305V47.4286ZM319.591 47.4286H323.019V50.8571H319.591V47.4286ZM323.019 47.4286H326.448V50.8571H323.019V47.4286ZM338.828 44H342.256V47.4286H338.828V44ZM338.828 40.5714H342.256V44H338.828V40.5714ZM342.256 40.5714H345.685V44H342.256V40.5714ZM342.256 44H345.685V47.4286H342.256V44ZM342.256 47.4286H345.685V50.8571H342.256V47.4286ZM342.256 50.8571H345.685V54.2857H342.256V50.8571ZM342.256 54.2857H345.685V57.7143H342.256V54.2857ZM338.828 54.2857H342.256V57.7143H338.828V54.2857ZM338.828 50.8571H342.256V54.2857H338.828V50.8571ZM338.828 47.4286H342.256V50.8571H338.828V47.4286ZM338.828 57.7143H342.256V61.1429H338.828V57.7143ZM342.256 57.7143H345.685V61.1429H342.256V57.7143ZM342.256 61.1429H345.685V64.5714H342.256V61.1429ZM342.256 64.5714H345.685V68H342.256V64.5714ZM338.828 64.5714H342.256V68H338.828V64.5714ZM338.828 61.1429H342.256V64.5714H338.828V61.1429ZM355.97 64.5714H359.399V68H355.97V64.5714ZM359.399 64.5714H362.828V68H359.399V64.5714ZM359.399 61.1429H362.828V64.5714H359.399V61.1429ZM359.399 57.7143H362.828V61.1429H359.399V57.7143ZM359.399 54.2857H362.828V57.7143H359.399V54.2857ZM359.399 50.8571H362.828V54.2857H359.399V50.8571ZM359.399 47.4286H362.828V50.8571H359.399V47.4286ZM359.399 44H362.828V47.4286H359.399V44ZM355.97 50.8571H359.399V54.2857H355.97V50.8571ZM355.97 54.2857H359.399V57.7143H355.97V54.2857ZM355.97 57.7143H359.399V61.1429H355.97V57.7143ZM355.97 61.1429H359.399V64.5714H355.97V61.1429ZM355.97 47.4286H359.399V50.8571H355.97V47.4286ZM345.685 44H349.113V47.4286H345.685V44ZM349.113 44H352.542V47.4286H349.113V44ZM352.542 44H355.97V47.4286H352.542V44ZM352.542 40.5714H355.97V44H352.542V40.5714ZM355.97 40.5714H359.399V44H355.97V40.5714ZM355.97 44H359.399V47.4286H355.97V44ZM349.113 40.5714H352.542V44H349.113V40.5714ZM338.828 33.7143H342.256V37.1429H338.828V33.7143ZM342.256 33.7143H345.685V37.1429H342.256V33.7143ZM342.256 37.1429H345.685V40.5714H342.256V37.1429ZM338.828 37.1429H342.256V40.5714H338.828V37.1429Z" fill="white"/>
</svg>
